<?xml version="1.0" encoding="UTF-8"?>
<svg id="Layer_1" data-name="Layer 1" xmlns="http://www.w3.org/2000/svg" viewBox="0 0 172.73 168.34">
  <defs>
    <style>
      .cls-1 {
        fill: #f6f3e6;
      }

      .cls-1, .cls-2, .cls-3, .cls-4, .cls-5, .cls-6, .cls-7, .cls-8, .cls-9, .cls-10, .cls-11, .cls-12, .cls-13, .cls-14, .cls-15, .cls-16, .cls-17, .cls-18, .cls-19, .cls-20, .cls-21, .cls-22, .cls-23, .cls-24, .cls-25, .cls-26, .cls-27, .cls-28, .cls-29 {
        stroke-width: 0px;
      }

      .cls-2 {
        fill: #f8e1bc;
      }

      .cls-3 {
        fill: #4c4c51;
      }

      .cls-4 {
        fill: #494536;
      }

      .cls-5 {
        fill: #60471d;
      }

      .cls-6 {
        fill: #7a5419;
      }

      .cls-7 {
        fill: #795724;
      }

      .cls-8 {
        fill: #765b31;
      }

      .cls-9 {
        fill: #27414e;
      }

      .cls-10 {
        fill: #515558;
      }

      .cls-11 {
        fill: #5b5c62;
      }

      .cls-12 {
        fill: #585758;
      }

      .cls-13 {
        fill: #1a435c;
      }

      .cls-14 {
        fill: #1e465f;
      }

      .cls-15 {
        fill: #ad731d;
      }

      .cls-16 {
        fill: #bc8025;
      }

      .cls-17 {
        fill: #bf7f21;
      }

      .cls-18 {
        fill: #be7b19;
      }

      .cls-19 {
        fill: #cdccca;
      }

      .cls-20 {
        fill: #b9812a;
      }

      .cls-21 {
        fill: #9e7027;
      }

      .cls-22 {
        fill: #b3aea8;
      }

      .cls-23 {
        fill: #847e71;
      }

      .cls-24 {
        fill: #eec78a;
      }

      .cls-25 {
        fill: #f1e8d4;
      }

      .cls-26 {
        fill: #ebdfca;
      }

      .cls-27 {
        fill: #f0eada;
      }

      .cls-28 {
        fill: #f5f0e3;
      }

      .cls-29 {
        fill: #e6e6e3;
      }
    </style>
  </defs>
  <path class="cls-10" d="M1.55,93.18c-.55-4.07-1.71-8.16-1.54-12.2.73-17.18,6.36-32.63,17.27-46.07,10.28-12.66,22.31-23.07,37.68-29.05,3.96-1.54,8.21-2.34,12.32-3.48,0,.54,0,1.08,0,1.62-3.71,1.35-7.51,2.5-11.12,4.08C36.24,16.78,20.95,30.54,10.9,49.94c-1.3,3.08-2.61,6.15-3.91,9.23-.69,2.28-1.38,4.55-2.07,6.83-.85,6.29-1.89,12.57-2.46,18.89-.25,2.72.45,5.52.72,8.29-.54,0-1.08,0-1.62.01Z"/>
  <path class="cls-11" d="M91.35.42c13.37.18,25.6,4.4,37.09,10.88,8.49,4.79,16.82,9.91,22.95,17.81-.4.42-.79.85-1.19,1.27-1.9-1.6-3.83-3.16-5.69-4.81-15.24-13.49-32.93-21.4-53.19-23.5.01-.55.02-1.1.03-1.65Z"/>
  <path class="cls-3" d="M168.85,109.01c-2.16,5.16-3.99,10.48-6.54,15.43-3.96,7.7-9.35,14.35-16.36,19.57l-.69-.93c1.71-1.96,3.42-3.91,5.12-5.87.32-.88.63-1.76.95-2.64.09-.2.24-.34.44-.43.52-.35,1.04-.7,1.56-1.05l-.05.06c.34-.86.69-1.71,1.03-2.57.1-.22.27-.38.49-.49,2.41-.04,2.53-1.74,2.52-3.52.15-.48.3-.95.45-1.43,1.64.16,1.76-.83,1.55-2.07,0,0-.05.06-.05.06.35-.35.69-.7,1.04-1.05l-.04.04c.36-.48.72-.96,1.08-1.44.21-.85.43-1.7.64-2.55.42-.67.85-1.33,1.27-2l.04-.06c.33-1.13.66-2.25.99-3.38.17-.85.34-1.7.52-2.55,2.9-1.37,2.58-3.99,2.51-6.51l-.09-.24c.96-.75,2.03-1.51.05-2.33,0-.96,0-1.92-.01-2.88h.44c.72.66,1.32.99,1.56-.4.23-1.27.53-2.53.8-3.79.49.55.99,1.09,1.48,1.64-.07.49-.14.97-.22,1.46-.29,1.46-.58,2.91-.87,4.37-.37,1.87-.75,3.73-1.12,5.6-.17.64-.34,1.28-.5,1.91Z"/>
  <path class="cls-12" d="M25.52,141.91c-7.82-10.18-15.25-20.61-19.79-32.77-.69-1.84-1.14-3.76-1.7-5.64.43-.46.85-.91,1.28-1.37,2.91,8.81,7.36,16.9,12.33,24.64,3.7,5.76,8.18,11.03,12.31,16.51.51.6,1.02,1.19,1.53,1.79.63.55,1.27,1.11,1.9,1.66.91,1.06,1.83,2.13,2.74,3.19-.94.04-1.87.07-2.81.11l-.93-.91c-.36-.34-.73-.69-1.09-1.03l.06.06c-.83-1.33-1.47-3-3.59-2.03-.11-.18-.26-.33-.44-.44-.6-1.26-1.2-2.52-1.81-3.78Z"/>
  <path class="cls-12" d="M150.2,30.38c.4-.42.79-.85,1.19-1.27,9.94,8.84,16.42,19.61,18.23,32.95-.5.05-1,.1-1.51.15-2.18-7.08-4.91-13.92-9.15-20.04-2.78-4.03-5.84-7.87-8.77-11.79Z"/>
  <path class="cls-11" d="M27.32,145.69c.18.11.32.26.44.44,1.2.68,2.4,1.36,3.59,2.03,0,0-.06-.06-.06-.06-.03.12-.1.25-.07.35.05.22.16.43.24.64.66.61,1.32,1.22,1.98,1.83,9.89,7.1,20.38,12.97,32.32,15.9-.46.36-.93.72-1.39,1.08-11.24-1.24-20.53-6.91-29.33-13.38-3.64-2.68-6.67-6.19-9.98-9.32.42-.03.85-.05,1.27-.08.33.19.66.38,1,.56Z"/>
  <path class="cls-3" d="M145.94,144.01c-.18.43-.37.86-.55,1.29-1.55,1.28-3.1,2.56-4.64,3.84l.07-.05c-.55.33-1.09.66-1.64,1-3.66,2.26-7.32,4.52-10.99,6.79-1.97.74-3.94,1.47-5.9,2.21-.03-.36-.05-.73-.08-1.09.73-.62,1.46-1.24,2.19-1.86.64-.29,1.28-.58,1.92-.88,2-1.69,4.01-3.39,6.01-5.08.32-.33.64-.67.96-1,1.15-.34,2.3-.68,3.45-1.02.53-.36,1.06-.71,1.59-1.07l-.09.07c.75-.33,1.49-.66,2.24-.99.27-.36.55-.71.82-1.07,0,0-.04.05-.04.05,1.33-.69,2.65-1.38,3.98-2.07l.69.93Z"/>
  <path class="cls-11" d="M140.82,149.09l-.07.05c1.51-.32,3.01-.63,4.52-.95-5.79,7.43-13.4,12.31-21.99,15.84-.44-.37-.89-.74-1.33-1.11,2.6-1.53,5.19-3.06,7.79-4.59,4.2-2.12,8.21-4.49,11.01-8.44.05-.27.07-.54.07-.81Z"/>
  <path class="cls-11" d="M171.56,95.67c-.49-.55-.99-1.09-1.48-1.64,0-1.69,0-3.38,0-5.06.12-3.29.24-6.57.36-9.86.44.03.89.06,1.33.09.35,2.72,1,5.45.97,8.17-.04,2.77-.75,5.54-1.17,8.31Z"/>
  <path class="cls-3" d="M64.37,167.91c.46-.36.93-.72,1.39-1.08,4.42.04,8.85.04,13.27.14,5.06.11,10.13.31,15.19.47,0,0,0,.47,0,.47-9.95,0-19.91,0-29.86,0Z"/>
  <path class="cls-23" d="M91.35.42c-.01.55-.02,1.1-.03,1.65-4,.02-8,.05-12,.07-1.01-.34-2.02-.68-3.03-1.02,4.95-1.85,10.02-.89,15.06-.7Z"/>
  <path class="cls-11" d="M115.48,166.76c-3.86,2.31-8.01,1.52-12.13,1.16.01-.17.01-.34,0-.52,3.99-.69,7.97-1.38,11.96-2.07.05.47.11.95.16,1.42Z"/>
  <path class="cls-11" d="M168.11,62.21c.5-.05,1-.1,1.51-.15.28,1.51.55,3.03.83,4.54.24.84.48,1.68.72,2.51.14.98.29,1.96.43,2.94-.56.05-1.11.1-1.67.14-.61-3.33-1.21-6.66-1.82-9.99Z"/>
  <path class="cls-10" d="M115.48,166.76c-.05-.47-.11-.95-.16-1.42,2.21-.8,4.42-1.61,6.63-2.41.44.37.89.74,1.33,1.11-2.6.91-5.2,1.81-7.8,2.72Z"/>
  <path class="cls-11" d="M67.29,4c0-.54,0-1.08,0-1.62l6.07-1.13c.41.37.82.74,1.23,1.11-2.43.55-4.87,1.09-7.3,1.64Z"/>
  <path class="cls-23" d="M5.3,102.14c-.43.46-.85.91-1.28,1.37-.53-1.81-1.06-3.62-1.59-5.43.42-.4.84-.81,1.25-1.21.54,1.76,1.08,3.52,1.62,5.28Z"/>
  <path class="cls-9" d="M169.92,72.19c.56-.05,1.11-.1,1.67-.14.06,2.38.12,4.76.17,7.14-.44-.03-.89-.06-1.33-.09-.17-2.3-.34-4.61-.51-6.91Z"/>
  <path class="cls-23" d="M103.36,167.41c0,.17,0,.34,0,.52-3.04,0-6.08-.02-9.12-.02v-.47c3.04,0,6.08-.01,9.13-.02Z"/>
  <path class="cls-4" d="M3.69,96.86c-.42.4-.84.81-1.25,1.21-.29-1.63-.59-3.26-.88-4.89.54,0,1.08,0,1.62-.01.17,1.23.34,2.46.51,3.69Z"/>
  <path class="cls-19" d="M145.27,148.2c-1.51.32-3.01.63-4.52.95,1.55-1.28,3.1-2.56,4.64-3.84-.04.96-.08,1.93-.12,2.89Z"/>
  <path class="cls-9" d="M74.59,2.36c-.41-.37-.82-.74-1.23-1.11l2.93-.13c1.01.34,2.02.68,3.03,1.02-1.57.07-3.15.15-4.72.22Z"/>
  <path class="cls-23" d="M26.33,145.12c-.42.03-.85.05-1.27.08-.6-.6-1.2-1.2-1.79-1.81,0-.37,0-.74,0-1.11.68.45,1.35.91,2.03,1.36.34.49.69.99,1.03,1.48Z"/>
  <path class="cls-11" d="M170.47,101.5c.29-1.46.58-2.91.87-4.37-.29,1.46-.58,2.91-.87,4.37Z"/>
  <path class="cls-11" d="M168.85,109.01c.17-.64.34-1.28.5-1.91-.17.64-.34,1.28-.5,1.91Z"/>
  <path class="cls-19" d="M26.33,145.12c-.34-.49-.69-.99-1.03-1.48.07-.58.15-1.16.22-1.73.6,1.26,1.2,2.52,1.81,3.78-.33-.19-.66-.38-1-.56Z"/>
  <path class="cls-12" d="M171.16,69.11c-.24-.84-.48-1.68-.72-2.51.24.84.48,1.68.72,2.51Z"/>
  <path class="cls-12" d="M23.27,142.29c0,.37,0,.74,0,1.11-.26-.31-.52-.62-.78-.93.26-.06.53-.12.79-.18Z"/>
  <path class="cls-27" d="M74.59,2.36c1.57-.07,3.15-.15,4.72-.22,4-.02,8-.05,12-.07,20.26,2.1,37.95,10.01,53.19,23.5,1.86,1.65,3.79,3.21,5.69,4.81,2.93,3.92,5.98,7.76,8.77,11.79,4.23,6.12,6.96,12.97,9.15,20.04.61,3.33,1.21,6.66,1.82,9.99.17,2.3.34,4.61.51,6.91-.12,3.29-.24,6.57-.36,9.86-.32-.33-.63-.66-.95-.99,0-2.49.1-4.98-.03-7.46-.03-.62-.8-1.21-1.23-1.81-.22.55-.61,1.1-.64,1.66-.1,1.49.02,2.99-.07,4.48-.18,3.1-.44,6.2-.67,9.3-.05,1.34-.1,2.67-.15,4.01-.35,1.26-.71,2.52-1.04,3.78-1.93,7.35-4.38,14.49-8.8,20.78-.07-.52-.15-1.04-.22-1.55-.24-.55.65-2.48-1.02-1.25-1.32.96-2.04,2.75-3.03,4.17-.37.66-.73,1.31-1.1,1.97-1.13,1.16-2.29,2.29-3.4,3.47-4.36,4.67-8.64,9.42-14.23,12.7-1.92-.11-3.85-.22-5.77-.33,3.6-2.64,7.33-5.12,10.76-7.97,10.19-8.45,17.64-18.8,21.35-31.65.65-1.68,1.44-3.33,1.93-5.06,2.61-9.2,3.02-18.6,2.4-28.08-.07-.68-.14-1.36-.22-2.05-.18-.41-.36-.82-.53-1.23.29-8.3-3.19-15.47-7.43-22.14-3.32-5.22-6.91-10.47-12.58-13.65-1.01-1.03-2.02-2.06-3.04-3.09-4.27-2.99-8.46-6.12-12.86-8.92-2.15-1.37-4.69-2.11-7.05-3.14l.02.08c-.38-.32-.76-.63-1.14-.95l.05.04c-11.21-6.4-23.3-8.77-36.1-7.89-1.32.05-2.63.11-3.95.16-.95.2-1.89.44-2.85.59-22.28,3.57-39.23,15.97-53.59,32.53-1.31,1.51-1.9,3.65-2.83,5.5l.08-.06c-.63.41-1.26.81-1.89,1.22-1.95,3.4-3.9,6.79-5.85,10.19-.69-2.08,1.14-4.77-1.51-6.39C20.95,30.54,36.24,16.78,56.17,8.08c3.61-1.58,7.41-2.73,11.12-4.08,2.43-.55,4.87-1.09,7.3-1.64Z"/>
  <path class="cls-28" d="M3.69,96.86c-.17-1.23-.34-2.46-.51-3.69-.27-2.77-.97-5.57-.72-8.29.58-6.32,1.61-12.59,2.46-18.89,1.74-.28,3.48-.56,5.22-.85-.06,1.02-.13,2.03-.19,3.05-.55.78-1.55,1.55-1.57,2.34-.13,5.29-.12,10.58.03,15.86.02.6,1.19,1.16,1.82,1.74.29.77.7,1.52.85,2.32,1.58,8.72,4.73,16.84,9.45,24.32,2.45,3.89,5.16,7.62,7.75,11.42.09,1.46.18,2.91.26,4.37.63,3.3,2.3,5.7,5.7,6.61l.02.02c.47.92.76,2.03,1.45,2.74,5.29,5.43,11.9,8.92,18.58,12.26,0,.56-.01,1.11-.02,1.67-.31.42-.62.85-.92,1.27-.35.32-.7.65-1.05.97-1.76-.82-3.53-1.61-5.26-2.48-2.27-1.14-4.5-2.35-6.75-3.53l.05.04c-.33-.46-.65-.92-.98-1.38l-1.05-.79c-1-3.01-3.04-1.88-4.95-1.23-.63-.55-1.27-1.11-1.9-1.66q.89-1.74-1.53-1.79c-4.13-5.49-8.61-10.75-12.31-16.51-4.97-7.74-9.42-15.83-12.33-24.64-.54-1.76-1.08-3.52-1.62-5.28Z"/>
  <path class="cls-27" d="M10.14,65.15c-1.74.28-3.48.56-5.22.85.69-2.28,1.38-4.55,2.07-6.83,1.76-.68,3.52-1.35,5.27-2.03-.71,2.67-1.41,5.34-2.12,8.01Z"/>
  <path class="cls-28" d="M12.26,57.14c-1.76.68-3.52,1.35-5.27,2.03,1.3-3.08,2.61-6.15,3.91-9.23,2.65,1.62.82,4.3,1.51,6.39.06.29.01.56-.15.81Z"/>
  <path class="cls-4" d="M156.49,122.71c4.42-6.3,6.87-13.43,8.8-20.78.33-1.26.69-2.52,1.04-3.78l.48-.02.47.08c0,.96,0,1.92.01,2.88-.02.78-.04,1.55-.05,2.33,0,0,.09.24.09.24-.84,2.17-1.68,4.34-2.51,6.51-.17.85-.34,1.7-.52,2.55-.33,1.13-.66,2.25-.99,3.38l-.04.06c-.42.67-.85,1.33-1.27,2-.21.85-.43,1.7-.64,2.55-.36.48-.72.96-1.08,1.44l.04-.04c-.35.35-.69.7-1.04,1.05,0,0,.05-.06.05-.06-.52.69-1.03,1.38-1.55,2.07-.15.48-.3.95-.45,1.43-.84,1.17-1.68,2.34-2.52,3.52-.22.1-.38.26-.49.49-.34.86-.69,1.71-1.03,2.57l.05-.06c-.52.35-1.04.7-1.56,1.05-.2.09-.34.23-.44.43-.79.84-1.58,1.68-2.37,2.52-2.43,2.12-4.87,4.24-7.3,6.35-.34-.31-.67-.62-1.01-.93.24-.8.47-1.6.71-2.41l-.09.08c2.05,0,3.77-.33,3.09-3.07l-.07.08c2.52-.2,3.75-1.69,4.07-4.09l-.07.09c1.93.53,1.95-.83,2.08-2.09l-.02.07c.96-1.02,1.92-2.04,2.88-3.05,1.09-1.8,2.18-3.61,3.27-5.41Z"/>
  <path class="cls-22" d="M141.65,143.45c2.43-2.12,4.87-4.24,7.3-6.35.47.04.94.08,1.42.12-1.71,1.96-3.42,3.91-5.12,5.87-1.33.69-2.65,1.38-3.98,2.07.13-.57.25-1.13.38-1.7Z"/>
  <path class="cls-22" d="M169.13,87.97c.32.33.63.66.95.99,0,1.69,0,3.38,0,5.06-.27,1.26-.57,2.52-.8,3.79-.24,1.38-.84,1.06-1.56.38.15-1.03.3-2.07.45-3.1.32-2.38.64-4.75.96-7.13Z"/>
  <path class="cls-22" d="M164.81,110.17c.84-2.17,1.68-4.34,2.51-6.51.07,2.52.39,5.14-2.51,6.51Z"/>
  <path class="cls-12" d="M168.17,95.1c-.15,1.03-.3,2.07-.45,3.1h-.44s-.47-.07-.47-.07l-.48.02c.05-1.34.1-2.67.15-4.01.56.32,1.12.64,1.68.96Z"/>
  <path class="cls-22" d="M154.79,130.11c.84-1.17,1.68-2.34,2.52-3.52,0,1.78-.11,3.47-2.52,3.52Z"/>
  <path class="cls-23" d="M163.3,116.1c.33-1.13.66-2.25.99-3.38-.33,1.13-.66,2.25-.99,3.38Z"/>
  <path class="cls-29" d="M150.37,137.22c-.47-.04-.94-.08-1.42-.12.79-.84,1.58-1.68,2.37-2.52-.32.88-.63,1.76-.95,2.64Z"/>
  <path class="cls-22" d="M157.77,125.16c.52-.69,1.03-1.38,1.55-2.07.21,1.23.09,2.22-1.55,2.07Z"/>
  <path class="cls-22" d="M153.27,133.17c.34-.86.69-1.71,1.03-2.57-.34.86-.69,1.71-1.03,2.57Z"/>
  <path class="cls-22" d="M167.24,103.43l.05-2.33c1.98.82.91,1.57-.05,2.33Z"/>
  <path class="cls-23" d="M161.99,118.15c.42-.67.85-1.33,1.27-2-.42.67-.85,1.33-1.27,2Z"/>
  <path class="cls-22" d="M151.76,134.15c.52-.35,1.04-.7,1.56-1.05-.52.35-1.04.7-1.56,1.05Z"/>
  <path class="cls-22" d="M160.27,122.15c.36-.48.72-.96,1.08-1.44-.36.48-.72.96-1.08,1.44Z"/>
  <path class="cls-22" d="M159.26,123.16l1.04-1.05-1.04,1.05Z"/>
  <path class="cls-29" d="M33.37,146.74c1.91-.65,3.95-1.78,4.95,1.23-1.5,1.54.3,1.61.97,2.19.35,0,.71-.01,1.06-.02l-.05-.04c.55.9.9,2.12,1.69,2.67,7.12,4.88,14.77,8.6,23.35,10.14,1.17.1,2.34.19,3.51.29l-.11-.04c.63.31,1.25.63,1.88.94-.08-.36-.17-.71-.25-1.07.37-.38.74-.76,1.1-1.14,1.93.12,3.86.25,5.79.37,1.05.27,2.1.77,3.15.78,5.79.1,11.58.07,17.37.09-.65,1.03-1.61,2.18.79,2,.61-.05,1.21-.16,1.82-.24,1.96-.29,3.92-.58,5.87-.88,1.34-.29,2.69-.59,4.03-.88.7-.29,1.41-.59,2.11-.88.82-.36,1.64-.71,2.45-1.07v.14c.8-.14,1.6-.27,2.39-.41,1.68-.61,3.36-1.22,5.03-1.84,1.97-.74,3.94-1.47,5.9-2.21.51.49,1.03.98,1.54,1.46-2.6,1.53-5.19,3.06-7.79,4.59-2.21.8-4.42,1.61-6.63,2.41-3.99.69-7.97,1.38-11.96,2.07-3.05,0-6.09.01-9.14.02-5.06-.16-10.12-.36-15.19-.47-4.42-.1-8.85-.09-13.27-.14-11.94-2.92-22.44-8.79-32.32-15.9-.02-.3-.07-.59-.13-.88.94-.04,1.87-.07,2.81-.11-.91-1.06-1.83-2.13-2.74-3.19Z"/>
  <path class="cls-29" d="M29.94,143.3q2.41.05,1.53,1.79c-.51-.6-1.02-1.19-1.53-1.79Z"/>
  <path class="cls-19" d="M31.35,148.16c-1.2-.68-2.4-1.36-3.59-2.03,2.13-.96,2.76.71,3.59,2.03Z"/>
  <path class="cls-22" d="M33.31,150.05c.06.29.11.58.13.88l-1.98-1.83c.31,0,.62.01.92.04l.93.91Z"/>
  <path class="cls-19" d="M32.38,149.13c-.31-.03-.62-.04-.92-.04-.08-.21-.19-.42-.24-.64-.03-.11.05-.23.07-.35.36.34.73.69,1.09,1.03Z"/>
  <path class="cls-26" d="M129.74,158.34c-.51-.49-1.03-.98-1.54-1.46,3.66-2.26,7.32-4.52,10.99-6.79.52-.06,1.04-.12,1.57-.19-2.8,3.95-6.81,6.31-11.01,8.44Z"/>
  <path class="cls-10" d="M122.29,159.09c-1.68.61-3.36,1.22-5.03,1.84-.31-.26-.63-.52-.94-.77-1.24-.41-2.48-.82-3.72-1.23,2.22-.86,4.44-1.73,6.66-2.59l-.27,1.85c-.41.15-.81.3-1.22.45.1.12.24.35.28.34.38-.15.75-.35,1.12-.53,1.02-.15,2.03-.29,3.05-.44.03.36.05.73.08,1.09Z"/>
  <path class="cls-11" d="M132.34,150.18c-2,1.69-4.01,3.39-6.01,5.08-.69-.41-1.37-.83-2.06-1.24,2.49-1.51,4.98-3.02,7.48-4.53.2.23.39.47.59.69Z"/>
  <path class="cls-4" d="M141.65,143.45c-.13.57-.25,1.13-.38,1.7l.04-.05c-.7.33-1.4.66-2.09.98-.32.36-.64.72-.97,1.08,0,0,.09-.07.09-.07-.53.36-1.06.71-1.59,1.07-1.15.34-2.3.68-3.45,1.02-.15-.13-.32-.21-.51-.25.19-.58.37-1.17.56-1.75,0,0-.02.02-.02.02,1.32-.72,2.64-1.45,3.97-2.17,1.12-.83,2.23-1.67,3.35-2.5.34.31.67.62,1.01.93Z"/>
  <path class="cls-23" d="M118.99,158.18l.27-1.85c.14-.26.35-.35.64-.29,1.5.03,3.01.06,4.51.09-.73.62-1.46,1.24-2.19,1.86-1.02.15-2.03.29-3.05.44,0,0-.18-.26-.18-.26Z"/>
  <path class="cls-12" d="M124.41,156.13c-1.5-.03-3.01-.06-4.51-.09l4.38-2.03c.69.41,1.37.83,2.06,1.24-.64.29-1.28.58-1.92.88Z"/>
  <path class="cls-19" d="M138.25,147.16c.32-.36.64-.72.97-1.08l1.27.08c-.75.33-1.49.66-2.24.99Z"/>
  <path class="cls-22" d="M140.49,146.17l-1.27-.08c.7-.33,1.4-.66,2.09-.98-.27.36-.55.71-.82,1.07Z"/>
  <path class="cls-11" d="M133.3,149.18c-.32.33-.64.67-.96,1-.2-.23-.4-.46-.59-.69l1.04-.56c.19.04.36.13.51.25Z"/>
  <path class="cls-19" d="M140.75,149.91c-.52.06-1.04.12-1.57.19.55-.33,1.09-.66,1.64-1,0,.27-.03.54-.07.81Z"/>
  <path class="cls-19" d="M136.75,148.16c.53-.36,1.06-.71,1.59-1.07-.53.36-1.06.71-1.59,1.07Z"/>
  <path class="cls-17" d="M12.26,57.14c.16-.25.21-.52.15-.81,1.95-3.4,3.9-6.79,5.85-10.19.63-.41,1.26-.81,1.89-1.22,0,0-.08.06-.08.06,1.36-1.14,2.9-2.11,4.04-3.44,8.14-9.45,17.36-17.54,28.15-23.95,9.02-5.37,19.1-7.37,29.03-9.16,8.91-1.6,18.03-.01,26.85,2.91,3.59,1.19,7.09,3.61,11.25,2.75l-.05-.04c.38.32.76.63,1.14.95l-.02-.08c.64.89,1.09,2.27,1.95,2.6,4.93,1.91,8.81,5.43,13.16,8.22,1.47.94,3.1,1.65,4.66,2.46.67.66,1.34,1.31,2,1.97.14.47.14,1.09.45,1.39,10.65,10.48,17.57,22.82,18.94,37.94.02.24.45.44.69.66-.32,7.23.82,14.53-1.65,21.65-1.15,3.32-1.53,6.91-2.25,10.38-2.04,3.98-3.78,8.15-6.19,11.9-3.31,5.15-6.26,10.68-11.59,14.21-1.54-.57-4.14.96-4.37-2.21,0,0-.02,0-.02,0,1.22-.19,3.21,0,3.54-.63,1.15-2.28,1.74-4.85,2.54-7.32,1.29-1.89,2.89-3.65,3.8-5.71,2.01-4.51,3.91-9.11,5.41-13.81,1.45-4.52,3.34-9.23,3.27-13.84-.13-9.72-1.7-19.36-5.87-28.36-4.68-10.1-9.94-19.81-18.84-26.91-6.37-5.09-13.27-9.28-21.54-10.59-6.54-2.42-13.3-3.11-20.22-2.75-4.18.22-8.48-.46-12.32,1.91-5.71-.51-10.63,2.24-15.57,4.27-5.6,2.3-11.28,4.95-16.02,8.61-4.87,3.76-8.86,8.76-12.86,13.53-4.72,5.62-8.46,12.02-10.07,19.17-2.62,11.61-1.84,23.42.62,34.92,2.62,12.26,8.57,22.79,19.3,30.03.12.25.31.41.57.48.12.32.24.65.36.97.72,3.36,2.94,4.43,6.13,4,1.31.61,2.62,1.21,3.92,1.82.44,2.33,2.17,2.34,3.98,2.19v-.02c.36,2.28,1.73,3.58,3.93,4.09,0,.67,0,1.33,0,2l-.97,1.05-.1-.06c-.67-.32-1.34-.64-2.01-.95-.33,0-.64-.05-.94-.19-.29-2.87-2.53-1.52-3.99-1.84-.1-.59-.21-1.19-.31-1.78,1.53-.83.7-1.69-.22-1.91-2.45-.59-4.97-.89-7.47-1.31-.33-.33-.66-.66-.99-.99-1.02-.65-2.04-1.3-3.06-1.96v.02c-.2-.58-.4-1.67-.61-1.67-2.49-.01-3.4-2.11-4.97-3.39-1.63-1.32-2.87-3.82-5.7-2.87-.22-.03-.45-.05-.67-.08-2.59-3.8-5.3-7.53-7.75-11.42-4.72-7.48-7.87-15.6-9.45-24.32-.14-.8-.56-1.55-.85-2.32-.1-6.65-.19-13.3-.29-19.95.06-1.02.13-2.03.19-3.05.71-2.67,1.41-5.34,2.12-8.01Z"/>
  <path class="cls-5" d="M140.62,128.29c5.33-3.53,8.28-9.06,11.59-14.21,2.41-3.75,4.15-7.92,6.19-11.9.48.03.95.06,1.43.09-3.71,12.85-11.16,23.2-21.35,31.65-3.43,2.84-7.17,5.32-10.76,7.97-.5.33-1,.67-1.51,1-.63.6-1.17,1.52-1.92,1.76-6.65,2.2-13.34,4.29-20.02,6.41-1.69.26-3.38.52-5.07.77-1.63.12-3.26.24-4.89.36h-2.01c-4.94-.06-9.87-.12-14.81-.18-2.86-.6-5.73-1.13-8.58-1.8-11.83-2.78-22.77-7.35-31.58-16.08.97.02,1.95.04,2.92.07,0,0,0-.02,0-.02,1.02.65,2.04,1.3,3.06,1.96.33.33.66.66.99.99,2.19,1.98,4.67,3.24,7.69,3.22.1.59.21,1.19.31,1.78,1.33.61,2.66,1.23,3.99,1.84.3.13.61.19.94.19.67.32,1.34.64,2.01.95,0,0,.1.06.1.06,3.66.98,7.31,1.97,10.97,2.95,1.81.12,3.89-.29,5.36.48,3.3,1.73,6.71,1.43,10.15,1.45,2.97.02,5.95.09,8.92-.02,1.44-.05,2.88-.47,4.31-.74,2.08-.38,4.16-.77,6.24-1.16,2.51-.08,5.12.19,7.02-2.01,0,0,0,0,0,0,1.37-.65,2.75-1.3,4.12-1.95.63-.07,1.25-.14,1.88-.21,1.3-.63,2.64-1.2,3.91-1.9,6.78-3.73,13.17-7.99,18.4-13.79Z"/>
  <path class="cls-21" d="M119.39,14.09c-4.16.86-7.66-1.55-11.25-2.75-8.82-2.93-17.94-4.51-26.85-2.91-9.93,1.79-20.01,3.79-29.03,9.16-10.79,6.42-20,14.5-28.15,23.95-1.14,1.32-2.68,2.3-4.04,3.44.93-1.85,1.52-3.98,2.83-5.5,14.37-16.57,31.31-28.96,53.59-32.53.96-.15,1.9-.39,2.85-.59,1.37,1.19,2.69,1.3,3.95-.16,12.8-.88,24.89,1.49,36.1,7.89Z"/>
  <path class="cls-7" d="M133.49,142.23c5.59-3.29,9.87-8.04,14.23-12.7,1.11-1.18,2.26-2.32,3.4-3.47.41.36.82.72,1.23,1.09-.01.33-.02.67-.03,1-.66,1.02-1.32,2.03-1.98,3.05l.02-.07c-.69.7-1.39,1.39-2.08,2.09l.07-.09c-1.36,1.36-2.71,2.73-4.07,4.09l.07-.08c-1.03,1.02-2.06,2.05-3.09,3.07l.09-.08c-1.4,1.15-2.8,2.3-4.2,3.45-1.38,1.11-4.21.67-3.83,3.63l.02-.02c-1.3.32-2.72.4-3.88.98-7.08,3.54-14.18,7-22.17,8.03,0-.61,0-1.22,0-1.83.43-.36.87-.72,1.3-1.08,3.23-1.06,6.47-2.12,9.7-3.18.76-.27,1.51-.54,2.27-.81,1.93-1,3.86-2,5.79-3,2.38-1.36,4.75-2.71,7.13-4.07Z"/>
  <path class="cls-6" d="M162.3,70.15c-.24-.22-.67-.42-.69-.66-1.37-15.12-8.28-27.45-18.94-37.94-.31-.3-.31-.92-.45-1.39.39-.03.78-.07,1.17-.1,5.67,3.18,9.27,8.43,12.58,13.65,4.24,6.67,7.72,13.84,7.43,22.14.18.41.36.82.53,1.23.07.68.14,1.36.22,2.05-.62.34-1.24.68-1.86,1.02Z"/>
  <path class="cls-7" d="M162.3,70.15c.62-.34,1.24-.68,1.86-1.02.62,9.48.21,18.88-2.4,28.08-.49,1.73-1.28,3.38-1.93,5.06-.48-.03-.95-.06-1.43-.09.73-3.47,1.1-7.06,2.25-10.38,2.47-7.12,1.32-14.43,1.65-21.65Z"/>
  <path class="cls-21" d="M140.23,28.19c-1.56-.81-3.19-1.52-4.66-2.46-4.35-2.79-8.23-6.31-13.16-8.22-.86-.33-1.31-1.7-1.95-2.6,2.36,1.03,4.9,1.77,7.05,3.14,4.4,2.8,8.59,5.93,12.86,8.92-.05.41-.09.81-.14,1.22Z"/>
  <path class="cls-4" d="M168.17,95.1c-.56-.32-1.12-.64-1.68-.96.23-3.1.49-6.2.67-9.3.09-1.49-.03-2.99.07-4.48.04-.57.42-1.11.64-1.66.43.6,1.2,1.18,1.23,1.81.13,2.48.04,4.98.03,7.46-.32,2.38-.64,4.75-.96,7.13Z"/>
  <path class="cls-26" d="M133.49,142.23c-2.38,1.36-4.75,2.71-7.13,4.07-.05-1.13-.1-2.27-.15-3.4.5-.33,1-.67,1.51-1,1.92.11,3.85.22,5.77.33Z"/>
  <path class="cls-19" d="M152.32,128.13c.01-.33.02-.67.03-1,.38-.61.76-1.23,1.14-1.84.93-1.38,1.86-2.75,2.78-4.13.07.52.15,1.04.22,1.55-1.09,1.8-2.18,3.61-3.27,5.41-.3-.02-.6-.02-.9,0Z"/>
  <path class="cls-23" d="M156.27,121.16c-.93,1.38-1.86,2.75-2.78,4.13-.42-.4-.85-.81-1.27-1.21.99-1.42,1.71-3.21,3.03-4.17,1.68-1.22.79.7,1.02,1.25Z"/>
  <path class="cls-8" d="M140.23,28.19c.05-.41.09-.81.14-1.22,1.01,1.03,2.02,2.06,3.04,3.09-.39.03-.78.07-1.17.1-.67-.66-1.34-1.31-2-1.97Z"/>
  <path class="cls-8" d="M152.22,124.08l1.27,1.21c-.38.61-.76,1.23-1.14,1.84-.41-.36-.82-.72-1.23-1.09.37-.66.73-1.31,1.1-1.97Z"/>
  <path class="cls-20" d="M83.29,6.2c-1.26,1.46-2.58,1.35-3.95.16,1.32-.05,2.63-.11,3.95-.16Z"/>
  <path class="cls-21" d="M20.15,44.92c-.63.41-1.26.81-1.89,1.22.63-.41,1.26-.81,1.89-1.22Z"/>
  <path class="cls-21" d="M120.48,15c-.38-.32-.76-.63-1.14-.95.38.32.76.63,1.14.95Z"/>
  <path class="cls-7" d="M163.95,67.09c-.18-.41-.36-.82-.53-1.23.18.41.36.82.53,1.23Z"/>
  <path class="cls-25" d="M107.3,156.19c7.99-1.03,15.09-4.49,22.17-8.03,1.17-.58,2.58-.67,3.88-.98-.19.58-.37,1.17-.56,1.75-.35.19-.7.37-1.04.56-2.49,1.51-4.98,3.02-7.48,4.53l-4.38,2.03c-.28-.07-.5.03-.64.29-2.22.86-4.44,1.73-6.66,2.59-2.43.4-4.87.81-7.3,1.21-.39.09-.78.18-1.17.26-3.43.26-6.85.66-10.28.74-5.52.13-11.05.06-16.58.07-3.26-.45-6.53-.9-9.8-1.34v.03c-4.39-2.01-8.8-4.02-13.2-6.03,0-.56.01-1.11.02-1.67,7.77,2.91,15.71,5.1,24.01,5.78,1.66.03,3.33.06,4.99.1,3.01,1.45,6.01,1.33,9-.07,5-.6,9.99-1.21,14.99-1.81Z"/>
  <path class="cls-26" d="M37.34,134.15c8.81,8.73,19.75,13.29,31.58,16.08,2.84.67,5.72,1.2,8.58,1.8-1.58,1.01-1.4,1.73.38,2.1,1.32.27,3.2-.63,3.46,1.74-.97,0-1.94,0-2.91,0-15.66-2.45-30.05-7.77-42.03-18.57-.41-.37-1.4-.08-2.12-.1l-.02-.02c-.84-2.63-2.74-4.83-5.7-6.61-.09-1.46-.18-2.91-.26-4.37.22.03.45.05.67.08,2.79,2.62,5.58,5.24,8.37,7.86Z"/>
  <path class="cls-8" d="M34.27,137.2c.72.02,1.72-.27,2.12.1,11.98,10.8,26.37,16.12,42.03,18.57-.04.7-.07,1.4-.11,2.1-8.31-.67-16.24-2.87-24.01-5.78-6.69-3.34-13.29-6.83-18.58-12.26-.69-.71-.98-1.82-1.45-2.74Z"/>
  <path class="cls-12" d="M65.34,162.9c-8.58-1.54-16.23-5.26-23.35-10.14-.8-.55-1.14-1.76-1.69-2.67,2.25,1.18,4.48,2.39,6.75,3.53,1.73.87,3.51,1.65,5.26,2.48,1.01.36,2.01.72,3.02,1.08l-.07-.05c1.03.35,2.06.69,3.09,1.04l-.08-.05c.69.53,1.38,1.05,2.07,1.58,1.67.55,3.33,1.09,5,1.64,0,.53,0,1.05.01,1.58Z"/>
  <path class="cls-27" d="M9.95,68.2c.1,6.65.19,13.3.29,19.95-.64-.58-1.81-1.14-1.82-1.74-.15-5.28-.17-10.58-.03-15.86.02-.79,1.02-1.56,1.57-2.34Z"/>
  <path class="cls-11" d="M65.33,161.33c-1.67-.55-3.33-1.09-5-1.64-.69-.53-1.38-1.05-2.07-1.58l.08.05c-1.03-.35-2.06-.69-3.09-1.04l.07.05c-.66-.68-1.31-1.36-1.97-2.05.31-.42.62-.85.92-1.27,4.4,2.01,8.8,4.02,13.21,6.03-.39.08-.78.17-1.17.25-.31.32-.62.65-.93.97,0,0-.06.2-.06.2Z"/>
  <path class="cls-8" d="M28.55,130.57c2.96,1.77,4.86,3.98,5.7,6.61-3.4-.91-5.07-3.31-5.7-6.61Z"/>
  <path class="cls-19" d="M53.36,155.14c.66.68,1.31,1.36,1.97,2.05-1.01-.36-2.01-.72-3.02-1.08.35-.32.7-.65,1.05-.97Z"/>
  <path class="cls-23" d="M39.29,150.16c-.66-.58-2.47-.65-.97-2.19l1.05.79c-.03.47-.05.94-.08,1.4Z"/>
  <path class="cls-12" d="M39.29,150.16c.03-.47.05-.94.08-1.4.33.46.65.92.98,1.38-.35,0-.71.01-1.06.02Z"/>
  <path class="cls-26" d="M137.16,143.56c1.4-1.15,2.8-2.3,4.2-3.45-.24.8-.47,1.6-.71,2.41-1.12.83-2.23,1.67-3.35,2.5-.05-.49-.09-.97-.14-1.46Z"/>
  <path class="cls-26" d="M144.29,137.2c1.36-1.36,2.71-2.73,4.07-4.09-.32,2.39-1.55,3.88-4.07,4.09Z"/>
  <path class="cls-22" d="M152.32,128.13c.3-.03.6-.03.9,0-.96,1.02-1.92,2.04-2.88,3.05.66-1.02,1.32-2.03,1.98-3.05Z"/>
  <path class="cls-26" d="M141.27,140.2c1.03-1.02,2.06-2.05,3.09-3.07.68,2.74-1.04,3.07-3.09,3.07Z"/>
  <path class="cls-26" d="M148.28,133.2c.69-.7,1.39-1.39,2.08-2.09-.12,1.26-.15,2.62-2.08,2.09Z"/>
  <path class="cls-23" d="M77.27,161.21c5.53-.01,11.06.06,16.58-.07,3.43-.08,6.85-.48,10.28-.74-.57.6-1.03,1.41-1.72,1.74-1.1.53-2.34.73-3.53,1.07-.36-.02-.73-.05-1.09-.07-5.79-.02-11.58,0-17.37-.09-1.06-.02-2.1-.51-3.15-.78,0-.35,0-.69,0-1.04Z"/>
  <path class="cls-23" d="M105.3,160.13c2.43-.4,4.87-.81,7.3-1.21,1.24.41,2.48.82,3.72,1.23l-1.44,1.18v-.14c-.78,0-1.56-.03-2.32.04-.08,0-.09.67-.13,1.03-.7.29-1.41.59-2.11.88-.7-.36-1.4-.72-2.1-1.09-.97-.64-1.94-1.28-2.9-1.92Z"/>
  <path class="cls-11" d="M77.27,161.21c0,.35,0,.69,0,1.04-1.93-.12-3.86-.25-5.79-.37-1.33-.67-2.67-1.34-4-2.01,3.26.45,6.53.9,9.8,1.34Z"/>
  <path class="cls-22" d="M67.48,159.87c1.33.67,2.67,1.34,4,2.01-.37.38-.74.76-1.1,1.14-.54.04-1.09.09-1.63.13,0,0,.11.04.11.04-1.13-.67-2.25-1.33-3.38-2,.28-.35.56-.69.85-1.04.39-.08.78-.17,1.17-.25v-.03Z"/>
  <path class="cls-4" d="M106.27,164.02c-1.96.29-3.92.58-5.87.88.31-.56.62-1.13.93-1.69,1.28-.05,2.56-.09,3.84-.14.37.32.74.64,1.11.95Z"/>
  <path class="cls-11" d="M101.33,163.21c-.31.56-.62,1.13-.93,1.69-.61.08-1.21.19-1.82.24-2.4.19-1.44-.97-.79-2,.36.02.73.05,1.09.07.82,0,1.63,0,2.45,0Z"/>
  <path class="cls-3" d="M106.27,164.02c-.37-.32-.74-.64-1.11-.95,1.01-.34,2.03-.68,3.04-1.02.7.36,1.4.72,2.1,1.09-1.34.29-2.69.59-4.03.88Z"/>
  <path class="cls-4" d="M65.47,161.19c1.13.67,2.25,1.33,3.38,2-1.17-.1-2.34-.19-3.51-.29,0-.53,0-1.05-.01-1.58l.06-.2s.09.06.09.06Z"/>
  <path class="cls-4" d="M112.42,162.26c.04-.36.06-1.02.13-1.03.77-.08,1.54-.04,2.32-.04-.82.36-1.64.71-2.45,1.07Z"/>
  <path class="cls-3" d="M68.75,163.15c.54-.04,1.09-.09,1.63-.13.08.36.17.71.25,1.07-.63-.31-1.25-.63-1.88-.94Z"/>
  <path class="cls-3" d="M114.87,161.33c.48-.39.96-.79,1.44-1.18.31.26.63.52.94.77-.8.14-1.59.27-2.39.41Z"/>
  <path class="cls-3" d="M119.17,158.43c-.37.18-.74.38-1.12.53-.04.02-.18-.22-.28-.34.41-.15.81-.3,1.22-.45l.18.26Z"/>
  <path class="cls-25" d="M137.16,143.56c.05.49.09.97.14,1.46-1.32.72-2.64,1.45-3.97,2.17-.38-2.96,2.45-2.53,3.83-3.63Z"/>
  <path class="cls-24" d="M41.41,128.61c-10.74-7.24-16.68-17.77-19.3-30.03-2.46-11.51-3.24-23.31-.62-34.92,1.61-7.15,5.35-13.55,10.07-19.17,4.01-4.76,7.99-9.77,12.86-13.53,4.74-3.66,10.43-6.31,16.02-8.61,4.95-2.03,9.86-4.78,15.57-4.27,6.25.03,12.51-.05,18.76.14,1.86.06,3.68.87,5.54,1.28,2.8.62,5.64,1.59,8.25-.57,8.27,1.3,15.17,5.5,21.54,10.59,8.89,7.1,14.16,16.81,18.84,26.91,4.17,9,5.74,18.64,5.87,28.36.06,4.6-1.83,9.32-3.27,13.84-1.51,4.7-3.4,9.29-5.41,13.81-.92,2.06-2.51,3.82-3.8,5.71-2.02,2.65-4.05,5.3-6.07,7.95h.02c-1.39,1.06-2.72,2.22-4.19,3.18-2.11,1.39-4.32,2.64-6.49,3.94-3.27-1.46-5.85,1.23-8.79,1.74-1.26.22-2.8,1.38-4.36,1.18-1.77-.23-.35,2.32-2.71,2.36-2.5.04-5.97.54-7.39,3.78-.23.22-.44.61-.71.65-8.99,1.51-18,1.78-27.02.22-2.1-.36-4.2-.68-6.3-1.01-.28-.09-.57-.1-.86-.04-3.69-1.34-7.38-2.68-11.07-4.02v.02c-1.32-.73-2.65-1.46-3.98-2.19-1.31-.61-2.62-1.21-3.92-1.82-2.04-1.33-4.09-2.67-6.13-4-.12-.32-.24-.65-.36-.97-.19-.16-.38-.32-.57-.48ZM47.19,44.09c-.84.36-1.67.71-2.51,1.07-.15.35-.31.69-.46,1.04-3.91.53-5.16,4.16-7.64,6.38-5.84,5.22-6.82,12.33-8.15,19.22-1.6,8.27,1.47,16.34,2.09,24.53.14,1.8,2.24,3.45,3.41,5.19.18.26.28.61.31.93.27,3.68,2.33,6.55,4.45,9.32,1.67,2.18,4.17,3.85,5.36,6.22,1.44,2.87,3.78,4.39,6.17,6.02,2.27,1.55,4.68,2.89,6.91,4.49,3.05,2.18,3,2.24,5.26-1.46.81.14,1.73.07,2.42.44,10.27,5.41,21.1,5.76,32.22,3.67,10.93-2.05,20.73-6.56,29.28-13.66,8.93-7.42,13.34-17.39,15.98-28.42,2.03-8.44-.13-16.24-2.93-24.02-3.83-11.43-10.52-20.69-20.72-27.3-5.58-3.62-11.36-6.68-18.27-6.65-.56-.28-1.12-.78-1.69-.81-10.91-.52-21.84-.35-32.49,2.16-4.69,1.1-9.55,2.65-12.93,6.66-1.07.91-2.14,1.82-3.21,2.72-.95.75-1.9,1.49-2.85,2.24Z"/>
  <path class="cls-20" d="M68.3,142.12c2.1.34,4.2.65,6.3,1.01,9.02,1.55,18.03,1.29,27.02-.22.26-.04.47-.43.71-.65,5.78.16,10.97-2.04,16.19-4.06,2.74-1.06,5.61-2.05,7.06-4.99,2.17-1.31,4.37-2.56,6.49-3.94,1.46-.96,2.79-2.11,4.19-3.18.23,3.16,2.83,1.64,4.37,2.21-5.23,5.8-11.62,10.06-18.4,13.79-1.27.7-2.6,1.27-3.91,1.9.17-.63.43-1.26.48-1.9.05-.56,0-1.23-.29-1.67-.15-.23-1.03-.26-1.37-.04-4.76,3.1-10,4.08-15.58,3.79-.81-.04-2.03-.16-2.39.3-1.92,2.45-4.52,1.61-6.9,1.66-4,.09-8,.03-12,.02-1,0-2.46.32-2.91-.2-1.95-2.29-4.46-1.78-6.88-1.78-1.45,0-2.18-.58-2.18-2.03Z"/>
  <path class="cls-18" d="M68.3,142.12c0,1.45.73,2.04,2.18,2.03,2.42,0,4.93-.51,6.88,1.78.44.52,1.91.2,2.91.2,4,.02,8,.07,12-.02,2.38-.05,4.99.79,6.9-1.66.35-.45,1.57-.34,2.39-.3,5.58.29,10.82-.69,15.58-3.79.33-.22,1.22-.19,1.37.04.29.44.33,1.11.29,1.67-.05.64-.31,1.27-.48,1.9-.63.07-1.25.14-1.88.21-1.56.26-3.89-1.11-4.12,1.95h0c-2.34.67-4.68,1.34-7.02,2.01-2.08.39-4.16.78-6.24,1.16-1.44.26-2.87.68-4.31.74-2.97.11-5.95.04-8.92.02-3.44-.03-6.84.28-10.15-1.45-1.47-.77-3.55-.36-5.36-.48-.1-.47-.1-1.3-.33-1.37-3.21-.94-6.44-1.77-9.67-2.63,0-.67,0-1.33,0-2,2.38-.02,4.76-.04,7.14-.07.29-.06.58-.04.86.04Z"/>
  <path class="cls-2" d="M108.55,18.94c-2.61,2.16-5.45,1.2-8.25.57-1.85-.41-3.68-1.22-5.54-1.28-6.25-.19-12.5-.11-18.76-.14,3.84-2.37,8.14-1.69,12.32-1.91,6.92-.36,13.69.33,20.22,2.75Z"/>
  <path class="cls-20" d="M37.34,134.15c-2.79-2.62-5.58-5.24-8.37-7.86,2.84-.95,4.07,1.55,5.7,2.87,1.58,1.27,2.49,3.37,4.97,3.39.21,0,.41,1.09.62,1.67-.97-.02-1.95-.04-2.92-.07Z"/>
  <path class="cls-20" d="M67.44,142.08c-2.38.02-4.76.04-7.14.07-2.2-.51-3.58-1.81-3.94-4.09,3.69,1.34,7.38,2.68,11.07,4.02Z"/>
  <path class="cls-20" d="M60.31,144.14c3.23.86,6.46,1.69,9.67,2.63.22.07.22.9.33,1.37-3.66-.98-7.31-1.97-10.97-2.95.32-.35.65-.7.97-1.05Z"/>
  <path class="cls-20" d="M136.23,126.09c2.02-2.65,4.05-5.3,6.07-7.95-.8,2.46-1.38,5.03-2.54,7.32-.32.64-2.31.44-3.54.63Z"/>
  <path class="cls-20" d="M51.99,140.37c-3.02.02-5.51-1.24-7.69-3.22,2.49.42,5.01.73,7.47,1.31.93.22,1.75,1.08.22,1.91Z"/>
  <path class="cls-20" d="M42.34,130.06c2.04,1.33,4.09,2.67,6.13,4-3.2.43-5.41-.64-6.13-4Z"/>
  <path class="cls-20" d="M56.3,143.99c-1.33-.61-2.66-1.23-3.99-1.84,1.46.33,3.7-1.03,3.99,1.84Z"/>
  <path class="cls-20" d="M52.39,135.89c1.33.73,2.65,1.46,3.98,2.19-1.81.15-3.54.14-3.98-2.19Z"/>
  <path class="cls-20" d="M43.31,136.15c-1.02-.65-2.04-1.3-3.06-1.96,1.02.65,2.04,1.3,3.06,1.96Z"/>
  <path class="cls-20" d="M59.25,145.13c-.67-.32-1.34-.64-2.01-.95.67.32,1.34.64,2.01.95Z"/>
  <path class="cls-20" d="M41.41,128.61c.19.16.38.32.57.48-.26-.08-.46-.24-.57-.48Z"/>
  <path class="cls-27" d="M126.21,142.89c.05,1.13.1,2.27.15,3.4-1.93,1-3.86,2-5.79,3-.95-.29-2.31-1.71-2.27.81-3.23,1.06-6.47,2.12-9.7,3.18-1.44-.74-2.88-1.48-4.32-2.22,6.68-2.12,13.37-4.21,20.02-6.41.75-.25,1.28-1.16,1.92-1.76Z"/>
  <path class="cls-1" d="M81.34,155.86c-.26-2.37-2.14-1.47-3.46-1.74-1.78-.37-1.96-1.09-.38-2.1,4.94.06,9.87.12,14.81.17-.02,1.22-.05,2.44-.07,3.66l.11.36c-2.94.04-5.88.07-8.83.11-.72-.15-1.45-.31-2.17-.46Z"/>
  <path class="cls-26" d="M92.23,155.85c.02-1.22.05-2.44.07-3.66h2.01c.55.8,1.1,1.59,1.66,2.38.37-1.75,4.09.46,3.24-2.74,1.69-.26,3.38-.52,5.07-.77,1.44.74,2.88,1.48,4.32,2.22-.43.36-.87.72-1.3,1.08-1.69.23-3.38.45-5.07.68-.31.09-.62.17-.93.26-.64.06-1.29.11-1.93.17-.76.14-1.52.27-2.29.41-1.61,0-3.23-.02-4.84-.02Z"/>
  <path class="cls-1" d="M99.21,151.84c.86,3.2-2.87.99-3.24,2.74-.55-.79-1.1-1.58-1.66-2.37,1.63-.12,3.26-.24,4.89-.36Z"/>
  <path class="cls-20" d="M105.28,148.16c2.34-.67,4.68-1.34,7.02-2.01-1.9,2.2-4.51,1.93-7.02,2.01Z"/>
  <path class="cls-20" d="M112.31,146.15c.23-3.07,2.57-1.69,4.12-1.95-1.37.65-2.75,1.3-4.12,1.95Z"/>
  <path class="cls-6" d="M92.23,155.85c1.61,0,3.23.02,4.84.02.76-.14,1.52-.27,2.29-.41.64-.06,1.29-.11,1.93-.17.31-.09.62-.17.93-.26,1.69-.23,3.38-.45,5.07-.68,0,.61,0,1.22,0,1.83-5,.6-9.99,1.21-14.99,1.81,0-.6.02-1.19.03-1.79l-.11-.36Z"/>
  <path class="cls-26" d="M118.3,150.1c-.04-2.51,1.31-1.1,2.27-.81-.76.27-1.51.54-2.27.81Z"/>
  <path class="cls-8" d="M92.34,156.21c0,.6-.02,1.19-.03,1.79-2.99,1.4-5.99,1.52-9,.07.07-.58.14-1.16.21-1.75,2.94-.04,5.88-.07,8.83-.11Z"/>
  <path class="cls-22" d="M108.2,162.05c-1.01.34-2.03.68-3.04,1.02-1.28.05-2.56.09-3.84.14-.82,0-1.63,0-2.45,0,1.18-.34,2.43-.54,3.53-1.07.69-.33,1.16-1.14,1.72-1.74.39-.09.78-.18,1.17-.26.97.64,1.94,1.28,2.9,1.92Z"/>
  <path class="cls-6" d="M83.51,156.33c-.07.58-.14,1.16-.21,1.75-1.66-.03-3.33-.06-4.99-.1.04-.7.07-1.4.11-2.1.97,0,1.94,0,2.91,0,.72.15,1.45.31,2.17.46Z"/>
  <path class="cls-19" d="M55.26,157.13c1.03.35,2.06.69,3.09,1.04-1.03-.35-2.06-.69-3.09-1.04Z"/>
  <path class="cls-19" d="M58.27,158.12c.69.53,1.38,1.05,2.07,1.58-.69-.53-1.38-1.05-2.07-1.58Z"/>
  <path class="cls-12" d="M65.47,161.19s-.09-.06-.09-.06c.31-.32.62-.65.93-.97-.28.35-.56.69-.85,1.04Z"/>
  <path class="cls-16" d="M139.36,65.05c2.8,7.78,4.96,15.58,2.93,24.02-2.65,11.03-7.05,21-15.98,28.42-8.55,7.1-18.35,11.6-29.28,13.66-11.12,2.09-21.95,1.74-32.22-3.67-.69-.36-1.61-.3-2.42-.44l-1.15-.85c-.91-.46-1.82-.92-2.73-1.38-.31-.3-.63-.6-.94-.89-.4-.28-.8-.57-1.2-.85h0c-.36-.3-.72-.61-1.08-.92h0c-.34-.32-.68-.65-1.02-.97h0c-.34-.33-.67-.65-1.01-.97h-.03c-.97-.72-1.93-1.42-2.9-2.13-.54-.62-1.01-1.31-1.62-1.85-11.14-9.91-16.17-22.91-17.18-37.24-.64-9.14,2.45-17.87,7.97-25.5,1.7-2.34,3.14-4.86,4.7-7.3.15-.35.31-.69.46-1.04.89.34,1.79.68,2.68,1.02-1.43,2.89-2.7,5.88-4.31,8.66-3.11,5.37-4.09,11.27-4.76,17.29.03,5.13.06,10.25.08,15.38,0,1.13,0,2.27,0,3.4l.88,3.25c1.65,3.03,3.3,6.07,4.95,9.1,5.09,9.56,13.45,15.13,23.21,18.98,1.63.64,3.26,1.29,4.9,1.91,1.02.38,2.06.7,3.1,1.05,1.32.31,2.65.63,3.97.94,1.77-.02,3.58.19,5.3-.13,1.26-.23,2.39-1.15,3.58-1.77.36-.04.72-.08,1.07-.13,1.65-.01,3.3-.02,4.95-.03,4.33-1.33,8.67-2.65,13-3.98,2.32-.99,4.65-1.97,6.97-2.96,3.81-2.21,7.56-4.56,11.46-6.6,5.83-3.06,9.04-7.78,9.75-14.27.28-.38.77-.75.8-1.15.37-5.64.67-11.29.99-16.94-.27-.68-.54-1.35-.82-2.03.01-.64.02-1.28.03-1.92-.02-.38-.04-.75-.06-1.13-.05-.97-.09-1.93-.14-2.9-.84-2.84,2.51-3.17,3.1-5.15Z"/>
  <path class="cls-2" d="M57.58,123.91c.31.3.63.6.94.89.91.46,1.82.92,2.73,1.38l1.15.85c-2.27,3.71-2.22,3.64-5.26,1.46-2.23-1.6-4.65-2.94-6.91-4.49-2.39-1.64-4.73-3.16-6.17-6.02-1.19-2.37-3.7-4.05-5.36-6.22-2.12-2.77-4.18-5.63-4.45-9.32-.02-.32-.13-.67-.31-.93-1.17-1.74-3.28-3.39-3.41-5.19-.62-8.19-3.69-16.26-2.09-24.53,1.33-6.89,2.32-14,8.15-19.22,2.49-2.22,3.73-5.85,7.64-6.38-1.56,2.44-3.01,4.96-4.7,7.3-5.52,7.62-8.61,16.36-7.97,25.5,1,14.33,6.03,27.32,17.18,37.24.61.54,1.08,1.23,1.62,1.85-.15,2.24,1.45,2.07,2.9,2.11h.03c.34.33.67.65,1.01.97h0c.34.33.68.66,1.02.98h0c.36.31.72.62,1.08.93h0c.4.28.8.56,1.2.84Z"/>
  <path class="cls-15" d="M139.36,65.05c-.59,1.99-3.94,2.31-3.1,5.15-.54-1.15-1.27-2.24-1.59-3.45-1.84-6.84-5.52-12.57-10.37-17.62-.4-.96-.53-2.3-1.25-2.81-3.16-2.22-6.54-4.11-9.74-6.27-2.91-1.97-5.71-3.85-9.46-4.07-2.21-.12-4.37-1.2-6.55-1.85-.38-2.43.83-3.25,3.07-3.03,6.91-.04,12.69,3.03,18.27,6.65,10.2,6.6,16.89,15.86,20.72,27.3Z"/>
  <path class="cls-20" d="M100.37,31.11c-2.24-.22-3.45.6-3.07,3.03-.67.01-1.35.03-2.02.04-6.31-.78-12.62-.69-18.92.13-7.57,1.14-14.9,3.15-22.02,5.94-.36-.38-.72-.75-1.08-1.13,3.38-4.01,8.25-5.56,12.93-6.66,10.65-2.51,21.58-2.69,32.49-2.16.58.03,1.13.53,1.69.81Z"/>
  <path class="cls-2" d="M125.58,133.21c-1.45,2.94-4.32,3.92-7.06,4.99-5.22,2.02-10.42,4.22-16.19,4.06,1.42-3.25,4.89-3.74,7.39-3.78,2.36-.04.94-2.59,2.71-2.36,1.57.2,3.1-.96,4.36-1.18,2.94-.5,5.52-3.19,8.79-1.74Z"/>
  <path class="cls-16" d="M53.26,39.12c.36.38.72.75,1.08,1.13-1.31.67-2.63,1.33-3.94,2-.12-.13-.24-.26-.35-.4,1.07-.91,2.14-1.82,3.21-2.72Z"/>
  <path class="cls-20" d="M47.37,46.17c-.89-.34-1.79-.68-2.68-1.02.84-.36,1.67-.71,2.51-1.07.38.38.77.75,1.15,1.13-.32.32-.65.64-.97.95Z"/>
  <path class="cls-16" d="M48.34,45.22c-.38-.38-.77-.75-1.15-1.13.95-.75,1.9-1.49,2.85-2.24.11.14.23.27.35.4-.69.99-1.37,1.98-2.06,2.97Z"/>
  <path class="cls-23" d="M99.35,155.47c-.76.14-1.52.27-2.29.41.76-.14,1.52-.27,2.29-.41Z"/>
  <path class="cls-23" d="M102.22,155.04c-.31.09-.62.17-.93.26.31-.09.62-.17.93-.26Z"/>
  <path class="cls-7" d="M48.34,45.22c.69-.99,1.37-1.98,2.06-2.97,1.31-.67,2.63-1.33,3.94-2,7.12-2.79,14.45-4.8,22.02-5.94l-.03,1.75c-5.7,1.62-11.37,3.34-17.09,4.83-4.62,1.21-7.73,4.2-10.4,7.93-5.43,7.59-8.37,16.02-8.78,25.34-.59-.68-1.17-1.36-1.76-2.04.67-6.01,1.65-11.92,4.76-17.29,1.61-2.79,2.89-5.77,4.31-8.66.32-.32.65-.64.97-.95Z"/>
  <path class="cls-6" d="M135.46,96.27c-.71,6.49-3.92,11.21-9.75,14.27-3.9,2.05-7.65,4.39-11.46,6.6-.65-.3-1.3-.6-1.95-.9,2.27-1.35,4.54-2.71,6.82-4.06,6.42-3.83,12.77-7.73,14.92-15.63.04-.15.2-.26.3-.4l1.12.11Z"/>
  <path class="cls-5" d="M124.3,49.13c4.85,5.05,8.54,10.78,10.37,17.62.32,1.21,1.05,2.3,1.59,3.45.05.97.09,1.93.14,2.9.02.38.04.75.06,1.13-.01.64-.02,1.28-.03,1.92-.36,0-.71-.01-1.07-.02-.27-.59-.69-1.16-.8-1.79-1.25-7.32-4.26-13.91-8.43-19.99-1.4-2.03-2.95-3.96-4.43-5.94.87.24,1.73.48,2.6.72Z"/>
  <path class="cls-2" d="M67.41,122.23c-9.76-3.85-18.11-9.42-23.21-18.98.28-.36.56-.72.84-1.08,1.55,1.9,3.08,3.82,4.65,5.7,5.06,6.05,11.72,9.92,18.58,13.49-.29.29-.58.58-.86.87Z"/>
  <path class="cls-7" d="M107.28,120.1c-4.33,1.33-8.67,2.65-13,3.98,0-.57,0-1.15,0-1.72,3.92-1.11,7.85-2.22,11.77-3.34.41.36.82.72,1.23,1.08Z"/>
  <path class="cls-5" d="M38.3,72.12c.59.68,1.17,1.36,1.76,2.04,0,1.34,0,2.67,0,4.01.02,1.99.04,3.97.06,5.96.2.27.3.56.32.89-.04.14-.13.31-.09.42.09.27.25.51.38.77.27.62.54,1.25.81,1.87-.49.49-.97.98-1.46,1.47-.56-.68-1.13-1.37-1.69-2.05-.03-5.13-.06-10.25-.08-15.38Z"/>
  <path class="cls-5" d="M135.46,96.27l-1.12-.11c.38-2.34.77-4.67,1.15-7.01.23-.43.45-.85.68-1.28,0-2.16-.01-4.32-.02-6.48.37-1.07.73-2.15,1.1-3.22-.32,5.65-.62,11.29-.99,16.94-.03.4-.52.77-.8,1.15Z"/>
  <path class="cls-24" d="M38.38,87.51c.56.68,1.13,1.37,1.69,2.05,1.66,4.2,3.32,8.4,4.98,12.61-.28.36-.56.72-.84,1.08-1.65-3.03-3.3-6.07-4.95-9.1l-.88-3.25c0-1.13,0-2.27,0-3.4Z"/>
  <path class="cls-8" d="M89.34,124.11c-.36.04-.72.08-1.07.13-3.25-.08-6.5-.16-9.76-.23-.14-.18-.25-.38-.33-.59.42-.44.83-.87,1.25-1.31,3.97.16,7.94.33,11.91.49-.67.51-1.33,1.01-2,1.52Z"/>
  <path class="cls-24" d="M78.51,124c3.25.08,6.5.16,9.76.23-1.19.61-2.32,1.53-3.58,1.77-1.71.32-3.53.11-5.3.13-1.07-.35-2.14-.69-3.21-1.04.78-.36,1.55-.73,2.33-1.09Z"/>
  <path class="cls-22" d="M78.51,124c-.78.36-1.55.73-2.33,1.09-.26.03-.51.07-.77.1-1.03-.35-2.08-.67-3.1-1.05-1.64-.61-3.27-1.27-4.9-1.91.29-.29.58-.58.86-.87,3.3.68,6.6,1.37,9.9,2.05.08.22.18.41.33.59Z"/>
  <path class="cls-8" d="M107.28,120.1c-.41-.36-.82-.72-1.23-1.08,2.08-.93,4.17-1.85,6.25-2.78.65.3,1.3.6,1.95.9-2.32.99-4.65,1.97-6.97,2.96Z"/>
  <path class="cls-5" d="M89.34,124.11c.67-.51,1.33-1.01,2-1.52.98-.08,1.96-.16,2.95-.24,0,.57,0,1.15,0,1.72-1.65.01-3.3.02-4.95.03Z"/>
  <path class="cls-8" d="M137.25,78.18c-.37,1.07-.73,2.15-1.1,3.22-.26-1.76-.53-3.51-.79-5.27.36,0,.71.01,1.07.02.27.68.54,1.35.82,2.03Z"/>
  <path class="cls-24" d="M53.25,120.19c-1.45-.04-3.05.12-2.9-2.11.97.7,1.93,1.41,2.9,2.11Z"/>
  <path class="cls-21" d="M75.41,125.19c.26-.03.51-.06.77-.1,1.07.35,2.14.69,3.21,1.04-1.32-.31-2.65-.63-3.97-.94Z"/>
  <path class="cls-24" d="M61.25,126.19c-.91-.46-1.82-.92-2.73-1.38.91.46,1.82.92,2.73,1.38Z"/>
  <path class="cls-21" d="M38.37,90.9l.88,3.25c-.29-1.08-.59-2.16-.88-3.25Z"/>
  <path class="cls-24" d="M57.58,123.91c-.4-.28-.8-.57-1.2-.85.4.28.8.57,1.2.85Z"/>
  <path class="cls-8" d="M136.46,74.22c-.02-.38-.04-.75-.06-1.13.02.38.04.75.06,1.13Z"/>
  <path class="cls-24" d="M54.28,121.16c-.34-.32-.67-.64-1.01-.96.34.32.67.64,1.01.96Z"/>
  <path class="cls-24" d="M55.31,122.14c-.34-.32-.68-.65-1.02-.97.34.32.68.65,1.02.97Z"/>
  <path class="cls-24" d="M56.38,123.07c-.36-.31-.72-.62-1.08-.93.36.31.72.62,1.08.93Z"/>
  <path class="cls-7" d="M124.3,49.13c-.87-.24-1.73-.48-2.6-.72-.97-.62-2.05-1.11-2.89-1.86-7.53-6.73-16.46-10.05-26.4-10.96l.04-.5c.95-.31,1.89-.61,2.84-.92.67-.01,1.35-.03,2.02-.04,2.18.65,4.34,1.73,6.55,1.85,3.75.21,6.55,2.1,9.46,4.07,3.2,2.16,6.58,4.06,9.74,6.27.72.5.85,1.85,1.25,2.81Z"/>
  <path class="cls-5" d="M95.29,34.17c-.95.31-1.89.61-2.84.92-2.38.14-4.76.29-7.14.43-1.33,0-2.66.01-3.98.02-.69.11-1.37.23-2.06.34-.98.06-1.96.12-2.94.18l.03-1.75c6.3-.82,12.61-.91,18.92-.13Z"/>
  <path class="cls-1" d="M81.32,35.54c1.33,0,2.66-.01,3.98-.02,2.37.02,4.74.04,7.1.06,9.94.91,18.87,4.22,26.4,10.96.85.76,1.92,1.25,2.89,1.86,1.48,1.98,3.03,3.91,4.43,5.94,4.17,6.08,7.18,12.66,8.43,19.99.11.62.52,1.19.8,1.79.26,1.76.53,3.51.79,5.27,0,2.16.01,4.32.02,6.48-.23.43-.45.85-.68,1.28-.38,2.34-.77,4.67-1.15,7.01-.1.13-.26.25-.3.4-2.15,7.91-8.5,11.8-14.92,15.63-2.27,1.35-4.54,2.71-6.82,4.06-2.08.93-4.17,1.85-6.25,2.78-3.92,1.11-7.85,2.22-11.77,3.34-.98.08-1.96.16-2.95.24-3.97-.16-7.94-.33-11.91-.49-.87-.39-1.7-.9-2.6-1.16-9.17-2.64-17.46-6.8-24.21-13.73-5.31-5.45-8.4-12.17-11.09-19.12-.27-.62-.54-1.25-.81-1.87-.09-.4-.19-.8-.28-1.2-.02-.33-.12-.63-.32-.89-.02-1.99-.04-3.97-.06-5.96,0-1.34,0-2.67,0-4.01.42-9.32,3.36-17.75,8.78-25.34,2.66-3.72,5.77-6.72,10.4-7.93,5.73-1.5,11.4-3.21,17.09-4.83.98-.06,1.96-.12,2.94-.18.69-.11,1.37-.23,2.06-.34ZM89.36,54.19c.28-.68.56-1.36.85-2.05.13-1.28.36-2.56.35-3.85,0-3.56-.1-3.61-4.3-3.84-.97-.01-1.93-.03-2.9-.04-3.36,0-6.72,0-10.08,0-.31-.18-.63-.19-.95-.02-1.38.29-2.75.58-4.13.86-3.14.29-6.28.58-9.42.87-.43,1.69-1.14,3.37-1.23,5.07-.82,14.98-1.52,29.97-2.26,44.96.03,2.75-1.26,5.63.84,8.16h-.01c1.18.32,2.36.92,3.55.94,5.93.09,11.86.07,17.79-.02,1.79-.03,3.62-.22,5.35-.67,4.6-1.19,5.58-3.68,3.51-8.44,0,0,0,0,0,0-.66-.3-1.32-.59-1.98-.89-2.58-.16-5.15-.48-7.73-.44-3.84.06-7.72,1.33-11.43-.68.36-3.99.71-7.98,1.07-11.96.09-.76.19-1.53.28-2.29,1.91-.33,3.81-.65,5.72-.98,3.45-.26,6.94-.24,10.32-.85,3.26-.59,4.59-3.3,3.99-6.9-.5-2.96-1.58-3.85-5.19-3.79-3.3.05-6.6.22-9.89.55-3.47.34-4.37-.46-3.99-4.18.25-2.47.64-4.92.96-7.38.63-.33,1.26-.67,1.89-1,2-.1,4-.19,5.99-.29,1.98.06,3.97.29,5.94.14,2.38-.17,4.73-.65,7.09-1ZM104.35,56.25c.17-3.12.41-6.24.46-9.36.02-1.05-.2-2.82-.77-3.04-2.24-.85-4.67-1.49-7.04-1.53-.52,0-1.44,2.73-1.57,4.26-.81,9.51-1.45,19.04-2.14,28.56-.25.17-.3.39-.15.66-.31,8.25-.88,16.5-.83,24.75.03,4.98,2.4,6.63,7.45,6.23,5.75-.46,11.5-1,17.24-1.55,1.64-.16,3.31-.32,4.89-.74,2.81-.76,3.93-3.52,3.39-7.34-.39-2.76-2.22-2.81-4.36-2.79-3.15.04-6.3-.09-9.45-.15-.83-.03-1.66-.07-2.49-.08-4.64-.06-4.68-.06-4.68-4.52,0-11.12.03-22.24.04-33.37Z"/>
  <path class="cls-4" d="M41.53,88.09c2.69,6.96,5.78,13.67,11.09,19.12,6.74,6.93,15.04,11.09,24.21,13.73.9.26,1.74.77,2.6,1.16-.42.44-.83.87-1.25,1.31-3.3-.68-6.6-1.37-9.9-2.05-6.86-3.58-13.52-7.44-18.58-13.49-1.57-1.88-3.1-3.8-4.65-5.7-1.66-4.2-3.32-8.4-4.98-12.61.49-.49.97-.98,1.46-1.47Z"/>
  <path class="cls-7" d="M40.06,78.17c.02,1.99.04,3.97.06,5.96-.02-1.99-.04-3.97-.06-5.96Z"/>
  <path class="cls-23" d="M40.44,85.02c.09.4.19.8.28,1.2-.13-.26-.29-.5-.38-.77-.04-.12.06-.28.09-.42Z"/>
  <path class="cls-8" d="M135.49,89.15c.23-.43.45-.85.68-1.28-.23.43-.45.85-.68,1.28Z"/>
  <path class="cls-23" d="M92.41,35.59c-2.37-.02-4.74-.04-7.1-.06,2.38-.14,4.76-.29,7.14-.43,0,0-.04.5-.04.5Z"/>
  <path class="cls-23" d="M81.32,35.54c-.69.11-1.37.23-2.06.34.69-.11,1.37-.23,2.06-.34Z"/>
  <path class="cls-13" d="M65.18,94.11c3.71,2.01,7.6.74,11.43.68,2.57-.04,5.15.28,7.73.44-.19,2.19,1.02,1.26,1.98.89h0c.54,2.65-.92,4.64-2.85,5.76-2.05,1.19-4.57,2.04-6.92,2.15-6.8.33-13.61.21-20.42.27h.01c-.21-2.72,1.28-5.62-.84-8.15.74-14.99,1.45-29.98,2.26-44.96.09-1.71.81-3.38,1.23-5.07,3.14-.29,6.28-.58,9.42-.87,1.38-.29,2.75-.58,4.13-.86.32,0,.63.01.95.02,3.36,0,6.72,0,10.08,0,.97.01,1.93.03,2.9.04,4.2.23,4.3.28,4.3,3.84,0,1.28-.23,2.56-.35,3.85-.28-.02-.54.04-.79.19-1.32,1.66-3.07,1.91-5.09,1.94-2.67.04-5.33.5-7.99.78-2,.1-4,.19-5.99.29-.49-.26-.97-.53-1.46-.79-.14.6-.29,1.19-.43,1.79-.32,2.46-.71,4.91-.96,7.38-.38,3.73.52,4.53,3.99,4.18,3.28-.33,6.59-.5,9.89-.55,3.61-.06,4.7.83,5.19,3.79.61,3.6-.72,6.31-3.99,6.9-3.38.61-6.88.59-10.32.85-2.06-.56-4.32-2.32-5.72.98-.09.76-.19,1.53-.28,2.29-.56.24-1.6.5-1.6.73.1,3.75.33,7.49.53,11.23Z"/>
  <path class="cls-14" d="M93.29,75.14c.69-9.52,1.33-19.05,2.14-28.56.13-1.53,1.05-4.27,1.57-4.26,2.37.04,4.79.68,7.04,1.53.57.22.79,1.99.77,3.04-.05,3.12-.29,6.24-.46,9.36-.27.09-.54.21-.8.34-.2-.23-.37-.48-.6-.68-.09-.08-.29-.05-.43-.08.22,4.1.44,8.2.66,12.3-.03.34-.05.68-.08,1.01-.26,1.67-.53,3.34-.79,5.01-1.62,4-1.6,7.99-.02,12,.08,1.72.16,3.44.24,5.15-.09,1.47-1.26,3.64,1.31,3.77,2.52.13,5.08-.54,7.62-.86,3.15.06,6.3.18,9.45.15,2.13-.03,3.96.03,4.36,2.79.55,3.81-.58,6.58-3.39,7.34-1.58.43-3.25.59-4.89.74-5.74.55-11.49,1.09-17.24,1.55-5.05.4-7.43-1.25-7.45-6.23-.04-8.25.52-16.5.83-24.75.06,2.81.1,5.63.21,8.44.02.43.32.84.49,1.26.15-.28.45-.59.42-.85-.41-3.16,1.1-6.53-.97-9.52Z"/>
  <path class="cls-29" d="M111.47,94.21c-2.54.32-5.11.99-7.62.86-2.57-.14-1.4-2.31-1.31-3.77.13-1.76.25-3.52.38-5.28,0-2.61,0-5.21.01-7.82.06-3.02.11-6.04.17-9.06.03-.34.05-.68.08-1.01.12-3.85.25-7.69.37-11.54.26-.13.52-.24.8-.34-.02,11.12-.05,22.24-.04,33.37,0,4.46.04,4.46,4.68,4.52.83.01,1.66.05,2.49.08Z"/>
  <path class="cls-9" d="M56.13,104.31c6.81-.06,13.63.06,20.42-.27,2.36-.11,4.88-.96,6.92-2.15,1.92-1.12,3.38-3.11,2.85-5.76,2.07,4.76,1.09,7.25-3.51,8.44-1.73.45-3.56.64-5.35.67-5.93.09-11.86.11-17.79.02-1.19-.02-2.36-.62-3.55-.95Z"/>
  <path class="cls-9" d="M65.18,94.11c-.2-3.74-.43-7.49-.53-11.23,0-.23,1.04-.49,1.6-.73-.36,3.99-.71,7.98-1.07,11.96Z"/>
  <path class="cls-11" d="M76.33,55.04c2.66-.28,5.33-.74,7.99-.78,2.03-.03,3.78-.28,5.09-1.94-.02.62-.04,1.24-.06,1.86-2.36.35-4.72.83-7.09,1-1.97.14-3.96-.08-5.94-.14Z"/>
  <path class="cls-9" d="M93.29,75.14c2.07,2.99.56,6.35.97,9.52.03.26-.27.57-.42.85-.17-.42-.48-.84-.49-1.26-.1-2.81-.15-5.63-.21-8.44-.15-.27-.1-.49.15-.66Z"/>
  <path class="cls-4" d="M68.21,45.25c-3.14.29-6.28.58-9.42.87,3.14-.29,6.28-.58,9.42-.87Z"/>
  <path class="cls-9" d="M55.3,96.16c2.12,2.53.63,5.44.84,8.16-2.1-2.53-.81-5.42-.84-8.16Z"/>
  <path class="cls-9" d="M66.53,79.85c1.4-3.3,3.66-1.54,5.72-.98-1.91.33-3.81.65-5.72.98Z"/>
  <path class="cls-11" d="M68.45,56.33c.14-.6.29-1.19.43-1.79.49.26.97.53,1.46.79-.63.33-1.26.67-1.89,1Z"/>
  <path class="cls-9" d="M86.32,96.13c-.96.37-2.17,1.3-1.98-.89.66.3,1.32.59,1.98.89Z"/>
  <path class="cls-14" d="M86.26,44.45c-.97-.01-1.93-.03-2.9-.04.97.01,1.93.03,2.9.04Z"/>
  <path class="cls-23" d="M89.36,54.19c.02-.62.04-1.24.06-1.86.24-.15.5-.21.79-.19l-.85,2.05Z"/>
  <path class="cls-14" d="M73.28,44.41c-.32,0-.63-.01-.95-.02.32-.17.63-.16.95.02Z"/>
  <path class="cls-13" d="M102.93,78.19c0,2.61,0,5.21-.01,7.82-.21.01-.42.06-.63.13-1.59-4-1.61-8,.02-12,.21,1.35.42,2.7.62,4.05Z"/>
  <path class="cls-9" d="M103.55,56.59c-.12,3.85-.25,7.69-.37,11.54-.22-4.1-.44-8.2-.66-12.3.15.02.34,0,.43.08.22.2.4.45.6.68Z"/>
  <path class="cls-23" d="M102.93,78.19c-.21-1.35-.42-2.7-.62-4.05.26-1.67.53-3.34.79-5.01-.06,3.02-.11,6.04-.17,9.06Z"/>
  <path class="cls-23" d="M102.3,86.14c.2-.07.41-.12.63-.13-.13,1.76-.25,3.52-.38,5.28-.08-1.72-.16-3.44-.24-5.15Z"/>
</svg>